<mxfile host="app.diagrams.net" modified="2023-08-26T01:17:21.962Z" agent="Mozilla/5.0 (Windows NT 10.0; Win64; x64) AppleWebKit/537.36 (KHTML, like Gecko) Chrome/116.0.0.0 Safari/537.36" etag="ZDKcB02GPEwilms_tu4u" version="21.5.0" type="github">
  <diagram name="第 1 页" id="PhLj6sjb9oxEGrkQKkNx">
    <mxGraphModel dx="1272" dy="851" grid="1" gridSize="10" guides="1" tooltips="1" connect="1" arrows="1" fold="1" page="1" pageScale="1" pageWidth="827" pageHeight="1169" math="0" shadow="0">
      <root>
        <mxCell id="0" />
        <mxCell id="1" parent="0" />
        <mxCell id="Ax4YkN_Q0GDF2FjoO6fH-5" style="edgeStyle=orthogonalEdgeStyle;rounded=0;orthogonalLoop=1;jettySize=auto;html=1;exitX=0.5;exitY=1;exitDx=0;exitDy=0;entryX=0.5;entryY=0;entryDx=0;entryDy=0;strokeWidth=2;fontSize=13;fontStyle=1" edge="1" parent="1" source="Ax4YkN_Q0GDF2FjoO6fH-3">
          <mxGeometry relative="1" as="geometry">
            <mxPoint x="240" y="220" as="targetPoint" />
          </mxGeometry>
        </mxCell>
        <mxCell id="Ax4YkN_Q0GDF2FjoO6fH-3" value="Log in" style="ellipse;whiteSpace=wrap;html=1;strokeWidth=2;fontSize=13;fontStyle=1" vertex="1" parent="1">
          <mxGeometry x="180" y="100" width="120" height="80" as="geometry" />
        </mxCell>
        <mxCell id="Ax4YkN_Q0GDF2FjoO6fH-9" style="edgeStyle=orthogonalEdgeStyle;rounded=0;orthogonalLoop=1;jettySize=auto;html=1;exitX=0.5;exitY=1;exitDx=0;exitDy=0;entryX=0.5;entryY=0;entryDx=0;entryDy=0;strokeWidth=2;fontSize=13;fontStyle=1" edge="1" parent="1" source="Ax4YkN_Q0GDF2FjoO6fH-6" target="Ax4YkN_Q0GDF2FjoO6fH-7">
          <mxGeometry relative="1" as="geometry" />
        </mxCell>
        <mxCell id="Ax4YkN_Q0GDF2FjoO6fH-10" style="edgeStyle=orthogonalEdgeStyle;rounded=0;orthogonalLoop=1;jettySize=auto;html=1;exitX=0.5;exitY=1;exitDx=0;exitDy=0;strokeWidth=2;fontSize=13;fontStyle=1" edge="1" parent="1" source="Ax4YkN_Q0GDF2FjoO6fH-6" target="Ax4YkN_Q0GDF2FjoO6fH-8">
          <mxGeometry relative="1" as="geometry" />
        </mxCell>
        <mxCell id="Ax4YkN_Q0GDF2FjoO6fH-6" value="Account exists?&lt;br style=&quot;font-size: 13px;&quot;&gt;and&lt;br style=&quot;font-size: 13px;&quot;&gt;Password is right?" style="rhombus;whiteSpace=wrap;html=1;strokeWidth=2;fontSize=13;fontStyle=1" vertex="1" parent="1">
          <mxGeometry x="125" y="330" width="230" height="100" as="geometry" />
        </mxCell>
        <mxCell id="Ax4YkN_Q0GDF2FjoO6fH-7" value="Access to game" style="rounded=0;whiteSpace=wrap;html=1;strokeWidth=2;fontSize=13;fontStyle=1" vertex="1" parent="1">
          <mxGeometry x="85" y="520" width="120" height="60" as="geometry" />
        </mxCell>
        <mxCell id="Ax4YkN_Q0GDF2FjoO6fH-35" style="edgeStyle=orthogonalEdgeStyle;rounded=0;orthogonalLoop=1;jettySize=auto;html=1;exitX=1;exitY=0.5;exitDx=0;exitDy=0;entryX=1;entryY=0.5;entryDx=0;entryDy=0;strokeWidth=2;fontSize=13;fontStyle=1" edge="1" parent="1" source="Ax4YkN_Q0GDF2FjoO6fH-8" target="Ax4YkN_Q0GDF2FjoO6fH-13">
          <mxGeometry relative="1" as="geometry" />
        </mxCell>
        <mxCell id="Ax4YkN_Q0GDF2FjoO6fH-8" value="Alert" style="rounded=0;whiteSpace=wrap;html=1;strokeWidth=2;fontSize=13;fontStyle=1" vertex="1" parent="1">
          <mxGeometry x="275" y="520" width="120" height="60" as="geometry" />
        </mxCell>
        <mxCell id="Ax4YkN_Q0GDF2FjoO6fH-15" style="edgeStyle=orthogonalEdgeStyle;rounded=0;orthogonalLoop=1;jettySize=auto;html=1;exitX=0.5;exitY=1;exitDx=0;exitDy=0;entryX=0.5;entryY=0;entryDx=0;entryDy=0;strokeWidth=2;fontSize=13;fontStyle=1" edge="1" parent="1" source="Ax4YkN_Q0GDF2FjoO6fH-13" target="Ax4YkN_Q0GDF2FjoO6fH-6">
          <mxGeometry relative="1" as="geometry" />
        </mxCell>
        <mxCell id="Ax4YkN_Q0GDF2FjoO6fH-13" value="Input email and password" style="rounded=0;whiteSpace=wrap;html=1;strokeWidth=2;fontSize=13;fontStyle=1" vertex="1" parent="1">
          <mxGeometry x="180" y="220" width="120" height="60" as="geometry" />
        </mxCell>
        <mxCell id="Ax4YkN_Q0GDF2FjoO6fH-16" value="NO" style="text;html=1;strokeColor=none;fillColor=none;align=center;verticalAlign=middle;whiteSpace=wrap;rounded=0;strokeWidth=2;fontSize=13;fontStyle=1" vertex="1" parent="1">
          <mxGeometry x="260" y="450" width="60" height="30" as="geometry" />
        </mxCell>
        <mxCell id="Ax4YkN_Q0GDF2FjoO6fH-17" value="YES" style="text;html=1;strokeColor=none;fillColor=none;align=center;verticalAlign=middle;whiteSpace=wrap;rounded=0;strokeWidth=2;fontSize=13;fontStyle=1" vertex="1" parent="1">
          <mxGeometry x="145" y="450" width="60" height="30" as="geometry" />
        </mxCell>
        <mxCell id="Ax4YkN_Q0GDF2FjoO6fH-25" style="edgeStyle=orthogonalEdgeStyle;rounded=0;orthogonalLoop=1;jettySize=auto;html=1;exitX=0.5;exitY=1;exitDx=0;exitDy=0;strokeWidth=2;fontSize=13;fontStyle=1" edge="1" parent="1" source="Ax4YkN_Q0GDF2FjoO6fH-19" target="Ax4YkN_Q0GDF2FjoO6fH-20">
          <mxGeometry relative="1" as="geometry" />
        </mxCell>
        <mxCell id="Ax4YkN_Q0GDF2FjoO6fH-19" value="Registration" style="ellipse;whiteSpace=wrap;html=1;strokeWidth=2;fontSize=13;fontStyle=1" vertex="1" parent="1">
          <mxGeometry x="690" y="100" width="120" height="80" as="geometry" />
        </mxCell>
        <mxCell id="Ax4YkN_Q0GDF2FjoO6fH-26" style="edgeStyle=orthogonalEdgeStyle;rounded=0;orthogonalLoop=1;jettySize=auto;html=1;exitX=0.5;exitY=1;exitDx=0;exitDy=0;entryX=0.5;entryY=0;entryDx=0;entryDy=0;strokeWidth=2;fontSize=13;fontStyle=1" edge="1" parent="1" source="Ax4YkN_Q0GDF2FjoO6fH-20" target="Ax4YkN_Q0GDF2FjoO6fH-22">
          <mxGeometry relative="1" as="geometry" />
        </mxCell>
        <mxCell id="Ax4YkN_Q0GDF2FjoO6fH-20" value="Input email" style="rounded=0;whiteSpace=wrap;html=1;strokeWidth=2;fontSize=13;fontStyle=1" vertex="1" parent="1">
          <mxGeometry x="690" y="220" width="120" height="60" as="geometry" />
        </mxCell>
        <mxCell id="Ax4YkN_Q0GDF2FjoO6fH-30" style="edgeStyle=orthogonalEdgeStyle;rounded=0;orthogonalLoop=1;jettySize=auto;html=1;exitX=0.5;exitY=1;exitDx=0;exitDy=0;entryX=0.5;entryY=0;entryDx=0;entryDy=0;strokeWidth=2;fontSize=13;fontStyle=1" edge="1" parent="1" source="Ax4YkN_Q0GDF2FjoO6fH-22" target="Ax4YkN_Q0GDF2FjoO6fH-28">
          <mxGeometry relative="1" as="geometry" />
        </mxCell>
        <mxCell id="Ax4YkN_Q0GDF2FjoO6fH-31" style="edgeStyle=orthogonalEdgeStyle;rounded=0;orthogonalLoop=1;jettySize=auto;html=1;exitX=0.5;exitY=1;exitDx=0;exitDy=0;strokeWidth=2;fontSize=13;fontStyle=1" edge="1" parent="1" source="Ax4YkN_Q0GDF2FjoO6fH-22" target="Ax4YkN_Q0GDF2FjoO6fH-27">
          <mxGeometry relative="1" as="geometry" />
        </mxCell>
        <mxCell id="Ax4YkN_Q0GDF2FjoO6fH-22" value="Account exists?" style="rhombus;whiteSpace=wrap;html=1;strokeWidth=2;fontSize=13;fontStyle=1" vertex="1" parent="1">
          <mxGeometry x="635" y="310" width="230" height="80" as="geometry" />
        </mxCell>
        <mxCell id="Ax4YkN_Q0GDF2FjoO6fH-37" style="edgeStyle=orthogonalEdgeStyle;rounded=0;orthogonalLoop=1;jettySize=auto;html=1;exitX=0.5;exitY=1;exitDx=0;exitDy=0;entryX=0.5;entryY=0;entryDx=0;entryDy=0;strokeWidth=2;fontSize=13;fontStyle=1" edge="1" parent="1" source="Ax4YkN_Q0GDF2FjoO6fH-27" target="Ax4YkN_Q0GDF2FjoO6fH-32">
          <mxGeometry relative="1" as="geometry" />
        </mxCell>
        <mxCell id="Ax4YkN_Q0GDF2FjoO6fH-27" value="Get active code" style="rounded=0;whiteSpace=wrap;html=1;strokeWidth=2;fontSize=13;fontStyle=1" vertex="1" parent="1">
          <mxGeometry x="800" y="440" width="120" height="60" as="geometry" />
        </mxCell>
        <mxCell id="Ax4YkN_Q0GDF2FjoO6fH-34" style="edgeStyle=orthogonalEdgeStyle;rounded=0;orthogonalLoop=1;jettySize=auto;html=1;exitX=0;exitY=0.5;exitDx=0;exitDy=0;entryX=0;entryY=0.5;entryDx=0;entryDy=0;strokeWidth=2;fontSize=13;fontStyle=1" edge="1" parent="1" source="Ax4YkN_Q0GDF2FjoO6fH-28" target="Ax4YkN_Q0GDF2FjoO6fH-20">
          <mxGeometry relative="1" as="geometry" />
        </mxCell>
        <mxCell id="Ax4YkN_Q0GDF2FjoO6fH-28" value="Alert" style="rounded=0;whiteSpace=wrap;html=1;strokeWidth=2;fontSize=13;fontStyle=1" vertex="1" parent="1">
          <mxGeometry x="590" y="440" width="120" height="60" as="geometry" />
        </mxCell>
        <mxCell id="Ax4YkN_Q0GDF2FjoO6fH-47" style="edgeStyle=orthogonalEdgeStyle;rounded=0;orthogonalLoop=1;jettySize=auto;html=1;exitX=0.5;exitY=1;exitDx=0;exitDy=0;entryX=0.5;entryY=0;entryDx=0;entryDy=0;strokeWidth=2;fontSize=13;fontStyle=1" edge="1" parent="1" source="Ax4YkN_Q0GDF2FjoO6fH-32" target="Ax4YkN_Q0GDF2FjoO6fH-39">
          <mxGeometry relative="1" as="geometry" />
        </mxCell>
        <mxCell id="Ax4YkN_Q0GDF2FjoO6fH-49" style="edgeStyle=orthogonalEdgeStyle;rounded=0;orthogonalLoop=1;jettySize=auto;html=1;exitX=0.5;exitY=1;exitDx=0;exitDy=0;entryX=0.5;entryY=0;entryDx=0;entryDy=0;strokeWidth=2;fontSize=13;fontStyle=1" edge="1" parent="1" source="Ax4YkN_Q0GDF2FjoO6fH-32" target="Ax4YkN_Q0GDF2FjoO6fH-48">
          <mxGeometry relative="1" as="geometry" />
        </mxCell>
        <mxCell id="Ax4YkN_Q0GDF2FjoO6fH-32" value="Active code input is matched" style="rhombus;whiteSpace=wrap;html=1;strokeWidth=2;fontSize=13;fontStyle=1" vertex="1" parent="1">
          <mxGeometry x="751.25" y="530" width="217.5" height="80" as="geometry" />
        </mxCell>
        <mxCell id="Ax4YkN_Q0GDF2FjoO6fH-43" style="edgeStyle=orthogonalEdgeStyle;rounded=0;orthogonalLoop=1;jettySize=auto;html=1;exitX=0;exitY=0.5;exitDx=0;exitDy=0;entryX=1;entryY=0.5;entryDx=0;entryDy=0;strokeWidth=2;fontSize=13;fontStyle=1" edge="1" parent="1" source="Ax4YkN_Q0GDF2FjoO6fH-39" target="Ax4YkN_Q0GDF2FjoO6fH-41">
          <mxGeometry relative="1" as="geometry" />
        </mxCell>
        <mxCell id="Ax4YkN_Q0GDF2FjoO6fH-39" value="Input user information" style="rounded=0;whiteSpace=wrap;html=1;strokeWidth=2;fontSize=13;fontStyle=1" vertex="1" parent="1">
          <mxGeometry x="705" y="680" width="120" height="60" as="geometry" />
        </mxCell>
        <mxCell id="Ax4YkN_Q0GDF2FjoO6fH-44" style="edgeStyle=orthogonalEdgeStyle;rounded=0;orthogonalLoop=1;jettySize=auto;html=1;exitX=0;exitY=0.5;exitDx=0;exitDy=0;entryX=1;entryY=0.5;entryDx=0;entryDy=0;strokeWidth=2;fontSize=13;fontStyle=1" edge="1" parent="1" source="Ax4YkN_Q0GDF2FjoO6fH-41" target="Ax4YkN_Q0GDF2FjoO6fH-3">
          <mxGeometry relative="1" as="geometry">
            <Array as="points">
              <mxPoint x="490" y="710" />
              <mxPoint x="490" y="140" />
            </Array>
          </mxGeometry>
        </mxCell>
        <mxCell id="Ax4YkN_Q0GDF2FjoO6fH-41" value="Completion" style="ellipse;whiteSpace=wrap;html=1;strokeWidth=2;fontSize=13;fontStyle=1" vertex="1" parent="1">
          <mxGeometry x="540" y="670" width="120" height="80" as="geometry" />
        </mxCell>
        <mxCell id="Ax4YkN_Q0GDF2FjoO6fH-45" value="NO" style="text;html=1;strokeColor=none;fillColor=none;align=center;verticalAlign=middle;whiteSpace=wrap;rounded=0;strokeWidth=2;fontSize=13;fontStyle=1" vertex="1" parent="1">
          <mxGeometry x="782.5" y="390" width="60" height="30" as="geometry" />
        </mxCell>
        <mxCell id="Ax4YkN_Q0GDF2FjoO6fH-46" value="YES" style="text;html=1;strokeColor=none;fillColor=none;align=center;verticalAlign=middle;whiteSpace=wrap;rounded=0;strokeWidth=2;fontSize=13;fontStyle=1" vertex="1" parent="1">
          <mxGeometry x="660" y="390" width="60" height="30" as="geometry" />
        </mxCell>
        <mxCell id="Ax4YkN_Q0GDF2FjoO6fH-50" style="edgeStyle=orthogonalEdgeStyle;rounded=0;orthogonalLoop=1;jettySize=auto;html=1;exitX=1;exitY=0.5;exitDx=0;exitDy=0;entryX=1;entryY=0.5;entryDx=0;entryDy=0;strokeWidth=2;fontSize=13;fontStyle=1" edge="1" parent="1" source="Ax4YkN_Q0GDF2FjoO6fH-48" target="Ax4YkN_Q0GDF2FjoO6fH-32">
          <mxGeometry relative="1" as="geometry" />
        </mxCell>
        <mxCell id="Ax4YkN_Q0GDF2FjoO6fH-48" value="Alert" style="rounded=0;whiteSpace=wrap;html=1;strokeWidth=2;fontSize=13;fontStyle=1" vertex="1" parent="1">
          <mxGeometry x="895" y="680" width="120" height="60" as="geometry" />
        </mxCell>
        <mxCell id="Ax4YkN_Q0GDF2FjoO6fH-53" value="NO" style="text;html=1;strokeColor=none;fillColor=none;align=center;verticalAlign=middle;whiteSpace=wrap;rounded=0;strokeWidth=2;fontSize=13;fontStyle=1" vertex="1" parent="1">
          <mxGeometry x="903.75" y="620" width="60" height="30" as="geometry" />
        </mxCell>
        <mxCell id="Ax4YkN_Q0GDF2FjoO6fH-54" value="YES" style="text;html=1;strokeColor=none;fillColor=none;align=center;verticalAlign=middle;whiteSpace=wrap;rounded=0;strokeWidth=2;fontSize=13;fontStyle=1" vertex="1" parent="1">
          <mxGeometry x="765" y="620" width="60" height="30" as="geometry" />
        </mxCell>
        <mxCell id="Ax4YkN_Q0GDF2FjoO6fH-90" style="edgeStyle=orthogonalEdgeStyle;rounded=0;orthogonalLoop=1;jettySize=auto;html=1;exitX=1;exitY=0.5;exitDx=0;exitDy=0;entryX=0;entryY=0.5;entryDx=0;entryDy=0;fontSize=13;fontStyle=1;strokeWidth=2;" edge="1" parent="1" source="Ax4YkN_Q0GDF2FjoO6fH-63" target="Ax4YkN_Q0GDF2FjoO6fH-65">
          <mxGeometry relative="1" as="geometry">
            <Array as="points">
              <mxPoint x="218" y="930" />
              <mxPoint x="218" y="990" />
            </Array>
          </mxGeometry>
        </mxCell>
        <mxCell id="Ax4YkN_Q0GDF2FjoO6fH-91" style="edgeStyle=orthogonalEdgeStyle;rounded=0;orthogonalLoop=1;jettySize=auto;html=1;exitX=1;exitY=0.5;exitDx=0;exitDy=0;entryX=0;entryY=0.5;entryDx=0;entryDy=0;fontSize=13;fontStyle=1;strokeWidth=2;" edge="1" parent="1" source="Ax4YkN_Q0GDF2FjoO6fH-63" target="Ax4YkN_Q0GDF2FjoO6fH-64">
          <mxGeometry relative="1" as="geometry" />
        </mxCell>
        <mxCell id="Ax4YkN_Q0GDF2FjoO6fH-63" value="Login" style="ellipse;whiteSpace=wrap;html=1;fontSize=13;fontStyle=1;strokeWidth=2;" vertex="1" parent="1">
          <mxGeometry x="70" y="890" width="120" height="80" as="geometry" />
        </mxCell>
        <mxCell id="Ax4YkN_Q0GDF2FjoO6fH-85" style="edgeStyle=orthogonalEdgeStyle;rounded=0;orthogonalLoop=1;jettySize=auto;html=1;exitX=1;exitY=0.5;exitDx=0;exitDy=0;entryX=0;entryY=0.5;entryDx=0;entryDy=0;fontSize=13;fontStyle=1;strokeWidth=2;" edge="1" parent="1" source="Ax4YkN_Q0GDF2FjoO6fH-64" target="Ax4YkN_Q0GDF2FjoO6fH-69">
          <mxGeometry relative="1" as="geometry" />
        </mxCell>
        <mxCell id="Ax4YkN_Q0GDF2FjoO6fH-64" value="AccessToken: 5 min" style="rounded=0;whiteSpace=wrap;html=1;fontSize=13;fontStyle=1;strokeWidth=2;" vertex="1" parent="1">
          <mxGeometry x="245" y="860" width="120" height="60" as="geometry" />
        </mxCell>
        <mxCell id="Ax4YkN_Q0GDF2FjoO6fH-87" style="edgeStyle=orthogonalEdgeStyle;rounded=0;orthogonalLoop=1;jettySize=auto;html=1;exitX=1;exitY=0.5;exitDx=0;exitDy=0;entryX=0;entryY=0.5;entryDx=0;entryDy=0;fontSize=13;fontStyle=1;strokeWidth=2;" edge="1" parent="1" source="Ax4YkN_Q0GDF2FjoO6fH-65" target="Ax4YkN_Q0GDF2FjoO6fH-69">
          <mxGeometry relative="1" as="geometry" />
        </mxCell>
        <mxCell id="Ax4YkN_Q0GDF2FjoO6fH-65" value="RefreshToken: 24h" style="rounded=0;whiteSpace=wrap;html=1;fontSize=13;fontStyle=1;strokeWidth=2;" vertex="1" parent="1">
          <mxGeometry x="245" y="960" width="120" height="60" as="geometry" />
        </mxCell>
        <mxCell id="Ax4YkN_Q0GDF2FjoO6fH-67" value="Send Request&lt;br style=&quot;font-size: 13px;&quot;&gt;With AccessToken" style="rounded=0;whiteSpace=wrap;html=1;fontSize=13;fontStyle=1;strokeWidth=2;" vertex="1" parent="1">
          <mxGeometry x="950" y="845" width="165" height="60" as="geometry" />
        </mxCell>
        <mxCell id="Ax4YkN_Q0GDF2FjoO6fH-84" style="edgeStyle=orthogonalEdgeStyle;rounded=0;orthogonalLoop=1;jettySize=auto;html=1;exitX=1;exitY=0.5;exitDx=0;exitDy=0;entryX=0;entryY=0.5;entryDx=0;entryDy=0;fontSize=13;fontStyle=1;strokeWidth=2;" edge="1" parent="1" source="Ax4YkN_Q0GDF2FjoO6fH-69" target="Ax4YkN_Q0GDF2FjoO6fH-70">
          <mxGeometry relative="1" as="geometry" />
        </mxCell>
        <mxCell id="Ax4YkN_Q0GDF2FjoO6fH-69" value="Check AccessToken&lt;br style=&quot;font-size: 13px;&quot;&gt;Every Minutes" style="rounded=0;whiteSpace=wrap;html=1;fontSize=13;fontStyle=1;strokeWidth=2;" vertex="1" parent="1">
          <mxGeometry x="450" y="910" width="120" height="60" as="geometry" />
        </mxCell>
        <mxCell id="Ax4YkN_Q0GDF2FjoO6fH-82" style="edgeStyle=orthogonalEdgeStyle;rounded=0;orthogonalLoop=1;jettySize=auto;html=1;exitX=1;exitY=0.5;exitDx=0;exitDy=0;entryX=0;entryY=0.5;entryDx=0;entryDy=0;fontSize=13;fontStyle=1;strokeWidth=2;" edge="1" parent="1" source="Ax4YkN_Q0GDF2FjoO6fH-70" target="Ax4YkN_Q0GDF2FjoO6fH-67">
          <mxGeometry relative="1" as="geometry">
            <Array as="points">
              <mxPoint x="900" y="940" />
              <mxPoint x="900" y="875" />
            </Array>
          </mxGeometry>
        </mxCell>
        <mxCell id="Ax4YkN_Q0GDF2FjoO6fH-83" style="edgeStyle=orthogonalEdgeStyle;rounded=0;orthogonalLoop=1;jettySize=auto;html=1;exitX=1;exitY=0.5;exitDx=0;exitDy=0;entryX=0;entryY=0.75;entryDx=0;entryDy=0;fontSize=13;fontStyle=1;strokeWidth=2;" edge="1" parent="1" source="Ax4YkN_Q0GDF2FjoO6fH-70" target="Ax4YkN_Q0GDF2FjoO6fH-74">
          <mxGeometry relative="1" as="geometry">
            <Array as="points">
              <mxPoint x="900" y="940" />
              <mxPoint x="900" y="1020" />
            </Array>
          </mxGeometry>
        </mxCell>
        <mxCell id="Ax4YkN_Q0GDF2FjoO6fH-70" value="Validity Period Exceeding 1 Minute" style="rhombus;whiteSpace=wrap;html=1;fontSize=13;fontStyle=1;strokeWidth=2;" vertex="1" parent="1">
          <mxGeometry x="610" y="900" width="251" height="80" as="geometry" />
        </mxCell>
        <mxCell id="Ax4YkN_Q0GDF2FjoO6fH-95" style="edgeStyle=orthogonalEdgeStyle;rounded=0;orthogonalLoop=1;jettySize=auto;html=1;exitX=0.5;exitY=1;exitDx=0;exitDy=0;entryX=0.5;entryY=1;entryDx=0;entryDy=0;fontSize=13;fontStyle=1;strokeWidth=2;" edge="1" parent="1" source="Ax4YkN_Q0GDF2FjoO6fH-74" target="Ax4YkN_Q0GDF2FjoO6fH-94">
          <mxGeometry relative="1" as="geometry">
            <Array as="points">
              <mxPoint x="1030" y="1090" />
              <mxPoint x="312" y="1090" />
            </Array>
          </mxGeometry>
        </mxCell>
        <mxCell id="Ax4YkN_Q0GDF2FjoO6fH-74" value="Request New AccessToken With RefreshToken" style="rounded=0;whiteSpace=wrap;html=1;fontSize=13;fontStyle=1;strokeWidth=2;" vertex="1" parent="1">
          <mxGeometry x="950" y="975" width="160" height="60" as="geometry" />
        </mxCell>
        <mxCell id="Ax4YkN_Q0GDF2FjoO6fH-94" value="Save On Front End" style="swimlane;whiteSpace=wrap;html=1;startSize=23;fontSize=13;fontStyle=1;strokeWidth=2;" vertex="1" parent="1">
          <mxGeometry x="205" y="820" width="215" height="220" as="geometry" />
        </mxCell>
        <mxCell id="Ax4YkN_Q0GDF2FjoO6fH-115" style="edgeStyle=orthogonalEdgeStyle;rounded=0;orthogonalLoop=1;jettySize=auto;html=1;exitX=1;exitY=0.5;exitDx=0;exitDy=0;entryX=0;entryY=0.5;entryDx=0;entryDy=0;strokeWidth=2;fontSize=14;fontStyle=1" edge="1" parent="1" source="Ax4YkN_Q0GDF2FjoO6fH-97" target="Ax4YkN_Q0GDF2FjoO6fH-106">
          <mxGeometry relative="1" as="geometry" />
        </mxCell>
        <mxCell id="Ax4YkN_Q0GDF2FjoO6fH-116" style="edgeStyle=orthogonalEdgeStyle;rounded=0;orthogonalLoop=1;jettySize=auto;html=1;exitX=1;exitY=0.5;exitDx=0;exitDy=0;entryX=0;entryY=0.5;entryDx=0;entryDy=0;strokeWidth=2;fontSize=14;fontStyle=1" edge="1" parent="1" source="Ax4YkN_Q0GDF2FjoO6fH-97" target="Ax4YkN_Q0GDF2FjoO6fH-99">
          <mxGeometry relative="1" as="geometry" />
        </mxCell>
        <mxCell id="Ax4YkN_Q0GDF2FjoO6fH-117" style="edgeStyle=orthogonalEdgeStyle;rounded=0;orthogonalLoop=1;jettySize=auto;html=1;exitX=1;exitY=0.5;exitDx=0;exitDy=0;entryX=0;entryY=0.5;entryDx=0;entryDy=0;strokeWidth=2;fontSize=14;fontStyle=1" edge="1" parent="1" source="Ax4YkN_Q0GDF2FjoO6fH-97" target="Ax4YkN_Q0GDF2FjoO6fH-105">
          <mxGeometry relative="1" as="geometry" />
        </mxCell>
        <mxCell id="Ax4YkN_Q0GDF2FjoO6fH-165" style="edgeStyle=orthogonalEdgeStyle;rounded=0;orthogonalLoop=1;jettySize=auto;html=1;exitX=1;exitY=0.5;exitDx=0;exitDy=0;entryX=0;entryY=0.5;entryDx=0;entryDy=0;strokeWidth=2;fontSize=14;fontStyle=1" edge="1" parent="1" source="Ax4YkN_Q0GDF2FjoO6fH-97" target="Ax4YkN_Q0GDF2FjoO6fH-98">
          <mxGeometry relative="1" as="geometry" />
        </mxCell>
        <mxCell id="Ax4YkN_Q0GDF2FjoO6fH-97" value="_apiCore" style="rounded=0;whiteSpace=wrap;html=1;strokeWidth=2;fontSize=14;fontStyle=1" vertex="1" parent="1">
          <mxGeometry x="466.5" y="1410" width="120" height="60" as="geometry" />
        </mxCell>
        <mxCell id="Ax4YkN_Q0GDF2FjoO6fH-118" style="edgeStyle=orthogonalEdgeStyle;rounded=0;orthogonalLoop=1;jettySize=auto;html=1;exitX=0.5;exitY=1;exitDx=0;exitDy=0;entryX=0.5;entryY=0;entryDx=0;entryDy=0;strokeWidth=2;fontSize=14;fontStyle=1" edge="1" parent="1" source="Ax4YkN_Q0GDF2FjoO6fH-98" target="Ax4YkN_Q0GDF2FjoO6fH-106">
          <mxGeometry relative="1" as="geometry" />
        </mxCell>
        <mxCell id="Ax4YkN_Q0GDF2FjoO6fH-98" value="Set HttpRequest Object" style="rounded=0;whiteSpace=wrap;html=1;strokeWidth=2;fontSize=14;fontStyle=1" vertex="1" parent="1">
          <mxGeometry x="748" y="1270" width="120" height="60" as="geometry" />
        </mxCell>
        <mxCell id="Ax4YkN_Q0GDF2FjoO6fH-120" style="edgeStyle=orthogonalEdgeStyle;rounded=0;orthogonalLoop=1;jettySize=auto;html=1;exitX=0.5;exitY=1;exitDx=0;exitDy=0;entryX=0.5;entryY=0;entryDx=0;entryDy=0;strokeWidth=2;fontSize=14;fontStyle=1" edge="1" parent="1" source="Ax4YkN_Q0GDF2FjoO6fH-99" target="Ax4YkN_Q0GDF2FjoO6fH-105">
          <mxGeometry relative="1" as="geometry" />
        </mxCell>
        <mxCell id="Ax4YkN_Q0GDF2FjoO6fH-99" value="Set Header" style="rounded=0;whiteSpace=wrap;html=1;strokeWidth=2;fontSize=14;fontStyle=1" vertex="1" parent="1">
          <mxGeometry x="748" y="1450" width="120" height="60" as="geometry" />
        </mxCell>
        <mxCell id="Ax4YkN_Q0GDF2FjoO6fH-107" style="edgeStyle=orthogonalEdgeStyle;rounded=0;orthogonalLoop=1;jettySize=auto;html=1;exitX=1;exitY=0.5;exitDx=0;exitDy=0;entryX=0;entryY=0.5;entryDx=0;entryDy=0;strokeWidth=2;fontSize=14;fontStyle=1" edge="1" parent="1" source="Ax4YkN_Q0GDF2FjoO6fH-100" target="Ax4YkN_Q0GDF2FjoO6fH-97">
          <mxGeometry relative="1" as="geometry" />
        </mxCell>
        <mxCell id="Ax4YkN_Q0GDF2FjoO6fH-100" value="URL" style="rounded=0;whiteSpace=wrap;html=1;strokeWidth=2;fontSize=14;fontStyle=1" vertex="1" parent="1">
          <mxGeometry x="245" y="1270" width="120" height="60" as="geometry" />
        </mxCell>
        <mxCell id="Ax4YkN_Q0GDF2FjoO6fH-109" style="edgeStyle=orthogonalEdgeStyle;rounded=0;orthogonalLoop=1;jettySize=auto;html=1;exitX=1;exitY=0.5;exitDx=0;exitDy=0;entryX=0;entryY=0.5;entryDx=0;entryDy=0;strokeWidth=2;fontSize=14;fontStyle=1" edge="1" parent="1" source="Ax4YkN_Q0GDF2FjoO6fH-101" target="Ax4YkN_Q0GDF2FjoO6fH-97">
          <mxGeometry relative="1" as="geometry" />
        </mxCell>
        <mxCell id="Ax4YkN_Q0GDF2FjoO6fH-101" value="Credentials&lt;br style=&quot;font-size: 14px;&quot;&gt;（JSON）" style="rounded=0;whiteSpace=wrap;html=1;strokeWidth=2;fontSize=14;fontStyle=1" vertex="1" parent="1">
          <mxGeometry x="245" y="1340" width="120" height="60" as="geometry" />
        </mxCell>
        <mxCell id="Ax4YkN_Q0GDF2FjoO6fH-112" style="edgeStyle=orthogonalEdgeStyle;rounded=0;orthogonalLoop=1;jettySize=auto;html=1;exitX=1;exitY=0.5;exitDx=0;exitDy=0;entryX=0;entryY=0.5;entryDx=0;entryDy=0;strokeWidth=2;fontSize=14;fontStyle=1" edge="1" parent="1" source="Ax4YkN_Q0GDF2FjoO6fH-102" target="Ax4YkN_Q0GDF2FjoO6fH-97">
          <mxGeometry relative="1" as="geometry" />
        </mxCell>
        <mxCell id="Ax4YkN_Q0GDF2FjoO6fH-102" value="&amp;nbsp;Token" style="rounded=0;whiteSpace=wrap;html=1;strokeWidth=2;fontSize=14;fontStyle=1" vertex="1" parent="1">
          <mxGeometry x="245" y="1480" width="120" height="60" as="geometry" />
        </mxCell>
        <mxCell id="Ax4YkN_Q0GDF2FjoO6fH-164" style="edgeStyle=orthogonalEdgeStyle;rounded=0;orthogonalLoop=1;jettySize=auto;html=1;exitX=1;exitY=0.5;exitDx=0;exitDy=0;entryX=0;entryY=0.5;entryDx=0;entryDy=0;strokeWidth=2;fontSize=14;fontStyle=1" edge="1" parent="1" source="Ax4YkN_Q0GDF2FjoO6fH-103" target="Ax4YkN_Q0GDF2FjoO6fH-97">
          <mxGeometry relative="1" as="geometry" />
        </mxCell>
        <mxCell id="Ax4YkN_Q0GDF2FjoO6fH-103" value="HTTP methods" style="rounded=0;whiteSpace=wrap;html=1;strokeWidth=2;fontSize=14;fontStyle=1" vertex="1" parent="1">
          <mxGeometry x="245" y="1410" width="120" height="60" as="geometry" />
        </mxCell>
        <mxCell id="Ax4YkN_Q0GDF2FjoO6fH-113" style="edgeStyle=orthogonalEdgeStyle;rounded=0;orthogonalLoop=1;jettySize=auto;html=1;exitX=1;exitY=0.5;exitDx=0;exitDy=0;entryX=0;entryY=0.5;entryDx=0;entryDy=0;strokeWidth=2;fontSize=14;fontStyle=1" edge="1" parent="1" source="Ax4YkN_Q0GDF2FjoO6fH-104" target="Ax4YkN_Q0GDF2FjoO6fH-97">
          <mxGeometry relative="1" as="geometry" />
        </mxCell>
        <mxCell id="Ax4YkN_Q0GDF2FjoO6fH-104" value="Route" style="rounded=0;whiteSpace=wrap;html=1;strokeWidth=2;fontSize=14;fontStyle=1" vertex="1" parent="1">
          <mxGeometry x="245" y="1550" width="120" height="60" as="geometry" />
        </mxCell>
        <mxCell id="Ax4YkN_Q0GDF2FjoO6fH-105" value="Send Http Request" style="rounded=0;whiteSpace=wrap;html=1;strokeWidth=2;fontSize=14;fontStyle=1" vertex="1" parent="1">
          <mxGeometry x="748" y="1550" width="120" height="60" as="geometry" />
        </mxCell>
        <mxCell id="Ax4YkN_Q0GDF2FjoO6fH-119" style="edgeStyle=orthogonalEdgeStyle;rounded=0;orthogonalLoop=1;jettySize=auto;html=1;exitX=0.5;exitY=1;exitDx=0;exitDy=0;entryX=0.5;entryY=0;entryDx=0;entryDy=0;strokeWidth=2;fontSize=14;fontStyle=1" edge="1" parent="1" source="Ax4YkN_Q0GDF2FjoO6fH-106" target="Ax4YkN_Q0GDF2FjoO6fH-99">
          <mxGeometry relative="1" as="geometry" />
        </mxCell>
        <mxCell id="Ax4YkN_Q0GDF2FjoO6fH-186" style="edgeStyle=orthogonalEdgeStyle;rounded=0;orthogonalLoop=1;jettySize=auto;html=1;exitX=1;exitY=0.5;exitDx=0;exitDy=0;entryX=0.5;entryY=0;entryDx=0;entryDy=0;strokeWidth=2;fontSize=14;fontStyle=1" edge="1" parent="1" source="Ax4YkN_Q0GDF2FjoO6fH-106" target="Ax4YkN_Q0GDF2FjoO6fH-142">
          <mxGeometry relative="1" as="geometry">
            <Array as="points">
              <mxPoint x="890" y="1390" />
              <mxPoint x="890" y="1638" />
              <mxPoint x="120" y="1638" />
            </Array>
          </mxGeometry>
        </mxCell>
        <mxCell id="Ax4YkN_Q0GDF2FjoO6fH-106" value="Connect&amp;nbsp;callback function" style="rounded=0;whiteSpace=wrap;html=1;strokeWidth=2;fontSize=14;fontStyle=1" vertex="1" parent="1">
          <mxGeometry x="748" y="1360" width="120" height="60" as="geometry" />
        </mxCell>
        <mxCell id="Ax4YkN_Q0GDF2FjoO6fH-194" style="edgeStyle=orthogonalEdgeStyle;rounded=0;orthogonalLoop=1;jettySize=auto;html=1;exitX=1;exitY=0.5;exitDx=0;exitDy=0;entryX=0;entryY=0.5;entryDx=0;entryDy=0;strokeWidth=2;" edge="1" parent="1" source="Ax4YkN_Q0GDF2FjoO6fH-121" target="Ax4YkN_Q0GDF2FjoO6fH-132">
          <mxGeometry relative="1" as="geometry" />
        </mxCell>
        <mxCell id="Ax4YkN_Q0GDF2FjoO6fH-195" style="edgeStyle=orthogonalEdgeStyle;rounded=0;orthogonalLoop=1;jettySize=auto;html=1;exitX=1;exitY=0.5;exitDx=0;exitDy=0;strokeWidth=2;" edge="1" parent="1" source="Ax4YkN_Q0GDF2FjoO6fH-121" target="Ax4YkN_Q0GDF2FjoO6fH-135">
          <mxGeometry relative="1" as="geometry" />
        </mxCell>
        <mxCell id="Ax4YkN_Q0GDF2FjoO6fH-196" style="edgeStyle=orthogonalEdgeStyle;rounded=0;orthogonalLoop=1;jettySize=auto;html=1;exitX=1;exitY=0.5;exitDx=0;exitDy=0;entryX=0;entryY=0.5;entryDx=0;entryDy=0;strokeWidth=2;" edge="1" parent="1" source="Ax4YkN_Q0GDF2FjoO6fH-121" target="Ax4YkN_Q0GDF2FjoO6fH-134">
          <mxGeometry relative="1" as="geometry" />
        </mxCell>
        <mxCell id="Ax4YkN_Q0GDF2FjoO6fH-121" value="&lt;div style=&quot;font-size: 14px;&quot;&gt;_on_HTTPRequest_request_completed&lt;/div&gt;" style="rounded=0;whiteSpace=wrap;html=1;strokeWidth=2;fontSize=14;fontStyle=1" vertex="1" parent="1">
          <mxGeometry x="414" y="1860.5" width="266" height="60" as="geometry" />
        </mxCell>
        <mxCell id="Ax4YkN_Q0GDF2FjoO6fH-124" style="edgeStyle=orthogonalEdgeStyle;rounded=0;orthogonalLoop=1;jettySize=auto;html=1;exitX=1;exitY=0.5;exitDx=0;exitDy=0;entryX=0;entryY=0.5;entryDx=0;entryDy=0;strokeWidth=2;fontSize=14;fontStyle=1" edge="1" parent="1" source="Ax4YkN_Q0GDF2FjoO6fH-123" target="Ax4YkN_Q0GDF2FjoO6fH-100">
          <mxGeometry relative="1" as="geometry" />
        </mxCell>
        <mxCell id="Ax4YkN_Q0GDF2FjoO6fH-125" style="edgeStyle=orthogonalEdgeStyle;rounded=0;orthogonalLoop=1;jettySize=auto;html=1;exitX=1;exitY=0.5;exitDx=0;exitDy=0;entryX=0;entryY=0.5;entryDx=0;entryDy=0;strokeWidth=2;fontSize=14;fontStyle=1" edge="1" parent="1" source="Ax4YkN_Q0GDF2FjoO6fH-123" target="Ax4YkN_Q0GDF2FjoO6fH-101">
          <mxGeometry relative="1" as="geometry" />
        </mxCell>
        <mxCell id="Ax4YkN_Q0GDF2FjoO6fH-126" style="edgeStyle=orthogonalEdgeStyle;rounded=0;orthogonalLoop=1;jettySize=auto;html=1;exitX=1;exitY=0.5;exitDx=0;exitDy=0;strokeWidth=2;fontSize=14;fontStyle=1" edge="1" parent="1" source="Ax4YkN_Q0GDF2FjoO6fH-123" target="Ax4YkN_Q0GDF2FjoO6fH-103">
          <mxGeometry relative="1" as="geometry" />
        </mxCell>
        <mxCell id="Ax4YkN_Q0GDF2FjoO6fH-127" style="edgeStyle=orthogonalEdgeStyle;rounded=0;orthogonalLoop=1;jettySize=auto;html=1;exitX=1;exitY=0.5;exitDx=0;exitDy=0;entryX=0;entryY=0.5;entryDx=0;entryDy=0;strokeWidth=2;fontSize=14;fontStyle=1" edge="1" parent="1" source="Ax4YkN_Q0GDF2FjoO6fH-123" target="Ax4YkN_Q0GDF2FjoO6fH-102">
          <mxGeometry relative="1" as="geometry" />
        </mxCell>
        <mxCell id="Ax4YkN_Q0GDF2FjoO6fH-128" style="edgeStyle=orthogonalEdgeStyle;rounded=0;orthogonalLoop=1;jettySize=auto;html=1;exitX=1;exitY=0.5;exitDx=0;exitDy=0;entryX=0;entryY=0.5;entryDx=0;entryDy=0;strokeWidth=2;fontSize=14;fontStyle=1" edge="1" parent="1" source="Ax4YkN_Q0GDF2FjoO6fH-123" target="Ax4YkN_Q0GDF2FjoO6fH-104">
          <mxGeometry relative="1" as="geometry" />
        </mxCell>
        <mxCell id="Ax4YkN_Q0GDF2FjoO6fH-123" value="Parameters" style="rounded=0;whiteSpace=wrap;html=1;strokeWidth=2;fontSize=14;fontStyle=1" vertex="1" parent="1">
          <mxGeometry x="60" y="1410" width="120" height="60" as="geometry" />
        </mxCell>
        <mxCell id="Ax4YkN_Q0GDF2FjoO6fH-132" value="&lt;div style=&quot;font-size: 14px;&quot;&gt;Converts the response body to a JSON object&lt;/div&gt;" style="rounded=0;whiteSpace=wrap;html=1;strokeWidth=2;fontSize=14;fontStyle=1" vertex="1" parent="1">
          <mxGeometry x="754" y="1780.5" width="120" height="60" as="geometry" />
        </mxCell>
        <mxCell id="Ax4YkN_Q0GDF2FjoO6fH-134" value="Remove Http Request" style="rounded=0;whiteSpace=wrap;html=1;strokeWidth=2;fontSize=14;fontStyle=1" vertex="1" parent="1">
          <mxGeometry x="754" y="1950.5" width="120" height="60" as="geometry" />
        </mxCell>
        <mxCell id="Ax4YkN_Q0GDF2FjoO6fH-185" style="edgeStyle=orthogonalEdgeStyle;rounded=0;orthogonalLoop=1;jettySize=auto;html=1;exitX=1;exitY=0.5;exitDx=0;exitDy=0;strokeWidth=2;fontSize=14;fontStyle=1" edge="1" parent="1" source="Ax4YkN_Q0GDF2FjoO6fH-135" target="Ax4YkN_Q0GDF2FjoO6fH-171">
          <mxGeometry relative="1" as="geometry">
            <Array as="points">
              <mxPoint x="900" y="1890" />
              <mxPoint x="900" y="2140" />
              <mxPoint x="100" y="2140" />
            </Array>
          </mxGeometry>
        </mxCell>
        <mxCell id="Ax4YkN_Q0GDF2FjoO6fH-135" value="&lt;div style=&quot;font-size: 14px;&quot;&gt;Emits the “http_completed”&lt;/div&gt;&lt;div style=&quot;font-size: 14px;&quot;&gt;signal&lt;/div&gt;" style="rounded=0;whiteSpace=wrap;html=1;strokeWidth=2;fontSize=14;fontStyle=1" vertex="1" parent="1">
          <mxGeometry x="754" y="1860.5" width="120" height="60" as="geometry" />
        </mxCell>
        <mxCell id="Ax4YkN_Q0GDF2FjoO6fH-149" style="edgeStyle=orthogonalEdgeStyle;rounded=0;orthogonalLoop=1;jettySize=auto;html=1;exitX=1;exitY=0.5;exitDx=0;exitDy=0;entryX=0;entryY=0.5;entryDx=0;entryDy=0;strokeWidth=2;fontSize=14;fontStyle=1" edge="1" parent="1" source="Ax4YkN_Q0GDF2FjoO6fH-142" target="Ax4YkN_Q0GDF2FjoO6fH-143">
          <mxGeometry relative="1" as="geometry" />
        </mxCell>
        <mxCell id="Ax4YkN_Q0GDF2FjoO6fH-150" style="edgeStyle=orthogonalEdgeStyle;rounded=0;orthogonalLoop=1;jettySize=auto;html=1;exitX=1;exitY=0.5;exitDx=0;exitDy=0;entryX=0;entryY=0.5;entryDx=0;entryDy=0;strokeWidth=2;fontSize=14;fontStyle=1" edge="1" parent="1" source="Ax4YkN_Q0GDF2FjoO6fH-142" target="Ax4YkN_Q0GDF2FjoO6fH-144">
          <mxGeometry relative="1" as="geometry" />
        </mxCell>
        <mxCell id="Ax4YkN_Q0GDF2FjoO6fH-151" style="edgeStyle=orthogonalEdgeStyle;rounded=0;orthogonalLoop=1;jettySize=auto;html=1;exitX=1;exitY=0.5;exitDx=0;exitDy=0;entryX=0;entryY=0.5;entryDx=0;entryDy=0;strokeWidth=2;fontSize=14;fontStyle=1" edge="1" parent="1" source="Ax4YkN_Q0GDF2FjoO6fH-142" target="Ax4YkN_Q0GDF2FjoO6fH-145">
          <mxGeometry relative="1" as="geometry" />
        </mxCell>
        <mxCell id="Ax4YkN_Q0GDF2FjoO6fH-152" style="edgeStyle=orthogonalEdgeStyle;rounded=0;orthogonalLoop=1;jettySize=auto;html=1;exitX=1;exitY=0.5;exitDx=0;exitDy=0;entryX=0;entryY=0.5;entryDx=0;entryDy=0;strokeWidth=2;fontSize=14;fontStyle=1" edge="1" parent="1" source="Ax4YkN_Q0GDF2FjoO6fH-142" target="Ax4YkN_Q0GDF2FjoO6fH-146">
          <mxGeometry relative="1" as="geometry" />
        </mxCell>
        <mxCell id="Ax4YkN_Q0GDF2FjoO6fH-153" style="edgeStyle=orthogonalEdgeStyle;rounded=0;orthogonalLoop=1;jettySize=auto;html=1;exitX=1;exitY=0.5;exitDx=0;exitDy=0;entryX=0;entryY=0.5;entryDx=0;entryDy=0;strokeWidth=2;fontSize=14;fontStyle=1" edge="1" parent="1" source="Ax4YkN_Q0GDF2FjoO6fH-142" target="Ax4YkN_Q0GDF2FjoO6fH-147">
          <mxGeometry relative="1" as="geometry" />
        </mxCell>
        <mxCell id="Ax4YkN_Q0GDF2FjoO6fH-154" style="edgeStyle=orthogonalEdgeStyle;rounded=0;orthogonalLoop=1;jettySize=auto;html=1;exitX=1;exitY=0.5;exitDx=0;exitDy=0;entryX=0;entryY=0.5;entryDx=0;entryDy=0;strokeWidth=2;fontSize=14;fontStyle=1" edge="1" parent="1" source="Ax4YkN_Q0GDF2FjoO6fH-142" target="Ax4YkN_Q0GDF2FjoO6fH-148">
          <mxGeometry relative="1" as="geometry" />
        </mxCell>
        <mxCell id="Ax4YkN_Q0GDF2FjoO6fH-142" value="Parameters" style="rounded=0;whiteSpace=wrap;html=1;strokeWidth=2;fontSize=14;fontStyle=1" vertex="1" parent="1">
          <mxGeometry x="60" y="1855.5" width="120" height="60" as="geometry" />
        </mxCell>
        <mxCell id="Ax4YkN_Q0GDF2FjoO6fH-155" style="edgeStyle=orthogonalEdgeStyle;rounded=0;orthogonalLoop=1;jettySize=auto;html=1;exitX=1;exitY=0.5;exitDx=0;exitDy=0;entryX=0;entryY=0.5;entryDx=0;entryDy=0;strokeWidth=2;fontSize=14;fontStyle=1" edge="1" parent="1" source="Ax4YkN_Q0GDF2FjoO6fH-143" target="Ax4YkN_Q0GDF2FjoO6fH-121">
          <mxGeometry relative="1" as="geometry" />
        </mxCell>
        <mxCell id="Ax4YkN_Q0GDF2FjoO6fH-143" value="Result" style="rounded=0;whiteSpace=wrap;html=1;strokeWidth=2;fontSize=14;fontStyle=1" vertex="1" parent="1">
          <mxGeometry x="235" y="1680" width="120" height="60" as="geometry" />
        </mxCell>
        <mxCell id="Ax4YkN_Q0GDF2FjoO6fH-157" style="edgeStyle=orthogonalEdgeStyle;rounded=0;orthogonalLoop=1;jettySize=auto;html=1;exitX=1;exitY=0.5;exitDx=0;exitDy=0;entryX=0;entryY=0.5;entryDx=0;entryDy=0;strokeWidth=2;fontSize=14;fontStyle=1" edge="1" parent="1" source="Ax4YkN_Q0GDF2FjoO6fH-144" target="Ax4YkN_Q0GDF2FjoO6fH-121">
          <mxGeometry relative="1" as="geometry" />
        </mxCell>
        <mxCell id="Ax4YkN_Q0GDF2FjoO6fH-144" value="Response Code" style="rounded=0;whiteSpace=wrap;html=1;strokeWidth=2;fontSize=14;fontStyle=1" vertex="1" parent="1">
          <mxGeometry x="235" y="1751" width="120" height="60" as="geometry" />
        </mxCell>
        <mxCell id="Ax4YkN_Q0GDF2FjoO6fH-158" style="edgeStyle=orthogonalEdgeStyle;rounded=0;orthogonalLoop=1;jettySize=auto;html=1;exitX=1;exitY=0.5;exitDx=0;exitDy=0;entryX=0;entryY=0.5;entryDx=0;entryDy=0;strokeWidth=2;fontSize=14;fontStyle=1" edge="1" parent="1" source="Ax4YkN_Q0GDF2FjoO6fH-145" target="Ax4YkN_Q0GDF2FjoO6fH-121">
          <mxGeometry relative="1" as="geometry" />
        </mxCell>
        <mxCell id="Ax4YkN_Q0GDF2FjoO6fH-145" value="Header" style="rounded=0;whiteSpace=wrap;html=1;strokeWidth=2;fontSize=14;fontStyle=1" vertex="1" parent="1">
          <mxGeometry x="235" y="1821" width="120" height="60" as="geometry" />
        </mxCell>
        <mxCell id="Ax4YkN_Q0GDF2FjoO6fH-160" style="edgeStyle=orthogonalEdgeStyle;rounded=0;orthogonalLoop=1;jettySize=auto;html=1;exitX=1;exitY=0.5;exitDx=0;exitDy=0;entryX=0;entryY=0.5;entryDx=0;entryDy=0;strokeWidth=2;fontSize=14;fontStyle=1" edge="1" parent="1" source="Ax4YkN_Q0GDF2FjoO6fH-146" target="Ax4YkN_Q0GDF2FjoO6fH-121">
          <mxGeometry relative="1" as="geometry" />
        </mxCell>
        <mxCell id="Ax4YkN_Q0GDF2FjoO6fH-146" value="Body" style="rounded=0;whiteSpace=wrap;html=1;strokeWidth=2;fontSize=14;fontStyle=1" vertex="1" parent="1">
          <mxGeometry x="235" y="1891" width="120" height="60" as="geometry" />
        </mxCell>
        <mxCell id="Ax4YkN_Q0GDF2FjoO6fH-161" style="edgeStyle=orthogonalEdgeStyle;rounded=0;orthogonalLoop=1;jettySize=auto;html=1;exitX=1;exitY=0.5;exitDx=0;exitDy=0;entryX=0;entryY=0.5;entryDx=0;entryDy=0;strokeWidth=2;fontSize=14;fontStyle=1" edge="1" parent="1" source="Ax4YkN_Q0GDF2FjoO6fH-147" target="Ax4YkN_Q0GDF2FjoO6fH-121">
          <mxGeometry relative="1" as="geometry" />
        </mxCell>
        <mxCell id="Ax4YkN_Q0GDF2FjoO6fH-147" value="Route" style="rounded=0;whiteSpace=wrap;html=1;strokeWidth=2;fontSize=14;fontStyle=1" vertex="1" parent="1">
          <mxGeometry x="235" y="1961" width="120" height="60" as="geometry" />
        </mxCell>
        <mxCell id="Ax4YkN_Q0GDF2FjoO6fH-162" style="edgeStyle=orthogonalEdgeStyle;rounded=0;orthogonalLoop=1;jettySize=auto;html=1;exitX=1;exitY=0.5;exitDx=0;exitDy=0;entryX=0;entryY=0.5;entryDx=0;entryDy=0;strokeWidth=2;fontSize=14;fontStyle=1" edge="1" parent="1" source="Ax4YkN_Q0GDF2FjoO6fH-148" target="Ax4YkN_Q0GDF2FjoO6fH-121">
          <mxGeometry relative="1" as="geometry" />
        </mxCell>
        <mxCell id="Ax4YkN_Q0GDF2FjoO6fH-148" value="Http Object" style="rounded=0;whiteSpace=wrap;html=1;strokeWidth=2;fontSize=14;fontStyle=1" vertex="1" parent="1">
          <mxGeometry x="235" y="2031" width="120" height="60" as="geometry" />
        </mxCell>
        <mxCell id="Ax4YkN_Q0GDF2FjoO6fH-168" style="edgeStyle=orthogonalEdgeStyle;rounded=0;orthogonalLoop=1;jettySize=auto;html=1;exitX=1;exitY=0.5;exitDx=0;exitDy=0;entryX=0;entryY=0.5;entryDx=0;entryDy=0;strokeWidth=2;fontSize=14;fontStyle=1" edge="1" parent="1" source="Ax4YkN_Q0GDF2FjoO6fH-167" target="Ax4YkN_Q0GDF2FjoO6fH-169">
          <mxGeometry relative="1" as="geometry">
            <mxPoint x="662.5" y="2289.6666666666665" as="targetPoint" />
          </mxGeometry>
        </mxCell>
        <mxCell id="Ax4YkN_Q0GDF2FjoO6fH-167" value="http_complete" style="rounded=0;whiteSpace=wrap;html=1;strokeWidth=2;fontSize=14;fontStyle=1" vertex="1" parent="1">
          <mxGeometry x="515" y="2260" width="120" height="60" as="geometry" />
        </mxCell>
        <mxCell id="Ax4YkN_Q0GDF2FjoO6fH-169" value="Process Data" style="rounded=0;whiteSpace=wrap;html=1;strokeWidth=2;fontSize=14;fontStyle=1" vertex="1" parent="1">
          <mxGeometry x="745" y="2260" width="120" height="60" as="geometry" />
        </mxCell>
        <mxCell id="Ax4YkN_Q0GDF2FjoO6fH-176" style="edgeStyle=orthogonalEdgeStyle;rounded=0;orthogonalLoop=1;jettySize=auto;html=1;exitX=1;exitY=0.5;exitDx=0;exitDy=0;entryX=0;entryY=0.5;entryDx=0;entryDy=0;strokeWidth=2;fontSize=14;fontStyle=1" edge="1" parent="1" source="Ax4YkN_Q0GDF2FjoO6fH-171" target="Ax4YkN_Q0GDF2FjoO6fH-172">
          <mxGeometry relative="1" as="geometry" />
        </mxCell>
        <mxCell id="Ax4YkN_Q0GDF2FjoO6fH-177" style="edgeStyle=orthogonalEdgeStyle;rounded=0;orthogonalLoop=1;jettySize=auto;html=1;exitX=1;exitY=0.5;exitDx=0;exitDy=0;entryX=0;entryY=0.5;entryDx=0;entryDy=0;strokeWidth=2;fontSize=14;fontStyle=1" edge="1" parent="1" source="Ax4YkN_Q0GDF2FjoO6fH-171" target="Ax4YkN_Q0GDF2FjoO6fH-173">
          <mxGeometry relative="1" as="geometry" />
        </mxCell>
        <mxCell id="Ax4YkN_Q0GDF2FjoO6fH-178" style="edgeStyle=orthogonalEdgeStyle;rounded=0;orthogonalLoop=1;jettySize=auto;html=1;exitX=1;exitY=0.5;exitDx=0;exitDy=0;entryX=0;entryY=0.5;entryDx=0;entryDy=0;strokeWidth=2;fontSize=14;fontStyle=1" edge="1" parent="1" source="Ax4YkN_Q0GDF2FjoO6fH-171" target="Ax4YkN_Q0GDF2FjoO6fH-174">
          <mxGeometry relative="1" as="geometry" />
        </mxCell>
        <mxCell id="Ax4YkN_Q0GDF2FjoO6fH-179" style="edgeStyle=orthogonalEdgeStyle;rounded=0;orthogonalLoop=1;jettySize=auto;html=1;exitX=1;exitY=0.5;exitDx=0;exitDy=0;entryX=0;entryY=0.5;entryDx=0;entryDy=0;strokeWidth=2;fontSize=14;fontStyle=1" edge="1" parent="1" source="Ax4YkN_Q0GDF2FjoO6fH-171" target="Ax4YkN_Q0GDF2FjoO6fH-175">
          <mxGeometry relative="1" as="geometry" />
        </mxCell>
        <mxCell id="Ax4YkN_Q0GDF2FjoO6fH-171" value="Parameters" style="rounded=0;whiteSpace=wrap;html=1;strokeWidth=2;fontSize=14;fontStyle=1" vertex="1" parent="1">
          <mxGeometry x="40" y="2270" width="120" height="60" as="geometry" />
        </mxCell>
        <mxCell id="Ax4YkN_Q0GDF2FjoO6fH-180" style="edgeStyle=orthogonalEdgeStyle;rounded=0;orthogonalLoop=1;jettySize=auto;html=1;exitX=1;exitY=0.5;exitDx=0;exitDy=0;entryX=0;entryY=0.5;entryDx=0;entryDy=0;strokeWidth=2;fontSize=14;fontStyle=1" edge="1" parent="1" source="Ax4YkN_Q0GDF2FjoO6fH-172" target="Ax4YkN_Q0GDF2FjoO6fH-167">
          <mxGeometry relative="1" as="geometry" />
        </mxCell>
        <mxCell id="Ax4YkN_Q0GDF2FjoO6fH-172" value="Result" style="rounded=0;whiteSpace=wrap;html=1;strokeWidth=2;fontSize=14;fontStyle=1" vertex="1" parent="1">
          <mxGeometry x="230" y="2170" width="120" height="60" as="geometry" />
        </mxCell>
        <mxCell id="Ax4YkN_Q0GDF2FjoO6fH-184" style="edgeStyle=orthogonalEdgeStyle;rounded=0;orthogonalLoop=1;jettySize=auto;html=1;exitX=1;exitY=0.5;exitDx=0;exitDy=0;entryX=0;entryY=0.5;entryDx=0;entryDy=0;strokeWidth=2;fontSize=14;fontStyle=1" edge="1" parent="1" source="Ax4YkN_Q0GDF2FjoO6fH-173" target="Ax4YkN_Q0GDF2FjoO6fH-167">
          <mxGeometry relative="1" as="geometry" />
        </mxCell>
        <mxCell id="Ax4YkN_Q0GDF2FjoO6fH-173" value="Response Code" style="rounded=0;whiteSpace=wrap;html=1;strokeWidth=2;fontSize=14;fontStyle=1" vertex="1" parent="1">
          <mxGeometry x="230" y="2241" width="120" height="60" as="geometry" />
        </mxCell>
        <mxCell id="Ax4YkN_Q0GDF2FjoO6fH-182" style="edgeStyle=orthogonalEdgeStyle;rounded=0;orthogonalLoop=1;jettySize=auto;html=1;exitX=1;exitY=0.5;exitDx=0;exitDy=0;entryX=0;entryY=0.5;entryDx=0;entryDy=0;strokeWidth=2;fontSize=14;fontStyle=1" edge="1" parent="1" source="Ax4YkN_Q0GDF2FjoO6fH-174" target="Ax4YkN_Q0GDF2FjoO6fH-167">
          <mxGeometry relative="1" as="geometry">
            <mxPoint x="400" y="2330" as="targetPoint" />
          </mxGeometry>
        </mxCell>
        <mxCell id="Ax4YkN_Q0GDF2FjoO6fH-174" value="Header" style="rounded=0;whiteSpace=wrap;html=1;strokeWidth=2;fontSize=14;fontStyle=1" vertex="1" parent="1">
          <mxGeometry x="230" y="2311" width="120" height="60" as="geometry" />
        </mxCell>
        <mxCell id="Ax4YkN_Q0GDF2FjoO6fH-183" style="edgeStyle=orthogonalEdgeStyle;rounded=0;orthogonalLoop=1;jettySize=auto;html=1;exitX=1;exitY=0.5;exitDx=0;exitDy=0;entryX=0;entryY=0.5;entryDx=0;entryDy=0;strokeWidth=2;fontSize=14;fontStyle=1" edge="1" parent="1" source="Ax4YkN_Q0GDF2FjoO6fH-175" target="Ax4YkN_Q0GDF2FjoO6fH-167">
          <mxGeometry relative="1" as="geometry" />
        </mxCell>
        <mxCell id="Ax4YkN_Q0GDF2FjoO6fH-175" value="Route" style="rounded=0;whiteSpace=wrap;html=1;strokeWidth=2;fontSize=14;fontStyle=1" vertex="1" parent="1">
          <mxGeometry x="230" y="2390" width="120" height="60" as="geometry" />
        </mxCell>
        <mxCell id="Ax4YkN_Q0GDF2FjoO6fH-187" value="user/*" style="rounded=0;whiteSpace=wrap;html=1;strokeWidth=2;spacing=2;fontSize=13;fontStyle=1" vertex="1" parent="1">
          <mxGeometry x="64" y="2750" width="120" height="60" as="geometry" />
        </mxCell>
        <mxCell id="Ax4YkN_Q0GDF2FjoO6fH-188" value="auth/*" style="rounded=0;whiteSpace=wrap;html=1;strokeWidth=2;spacing=2;fontSize=13;fontStyle=1" vertex="1" parent="1">
          <mxGeometry x="199" y="2750" width="120" height="60" as="geometry" />
        </mxCell>
        <mxCell id="Ax4YkN_Q0GDF2FjoO6fH-189" value="learn/*" style="rounded=0;whiteSpace=wrap;html=1;strokeWidth=2;spacing=2;fontSize=13;fontStyle=1" vertex="1" parent="1">
          <mxGeometry x="334" y="2750" width="120" height="60" as="geometry" />
        </mxCell>
        <mxCell id="Ax4YkN_Q0GDF2FjoO6fH-190" value="waston/*" style="rounded=0;whiteSpace=wrap;html=1;strokeWidth=2;spacing=2;fontSize=13;fontStyle=1" vertex="1" parent="1">
          <mxGeometry x="474" y="2750" width="120" height="60" as="geometry" />
        </mxCell>
        <mxCell id="Ax4YkN_Q0GDF2FjoO6fH-191" value="setting/*" style="rounded=0;whiteSpace=wrap;html=1;strokeWidth=2;spacing=2;fontSize=13;fontStyle=1" vertex="1" parent="1">
          <mxGeometry x="614" y="2750" width="120" height="60" as="geometry" />
        </mxCell>
        <mxCell id="Ax4YkN_Q0GDF2FjoO6fH-192" value="save/*" style="rounded=0;whiteSpace=wrap;html=1;strokeWidth=2;spacing=2;fontSize=13;fontStyle=1" vertex="1" parent="1">
          <mxGeometry x="748" y="2750" width="120" height="60" as="geometry" />
        </mxCell>
        <mxCell id="Ax4YkN_Q0GDF2FjoO6fH-231" style="edgeStyle=orthogonalEdgeStyle;rounded=0;orthogonalLoop=1;jettySize=auto;html=1;exitX=0.5;exitY=1;exitDx=0;exitDy=0;entryX=0.5;entryY=0;entryDx=0;entryDy=0;strokeWidth=2;spacing=2;fontSize=13;fontStyle=1" edge="1" parent="1" source="Ax4YkN_Q0GDF2FjoO6fH-197" target="Ax4YkN_Q0GDF2FjoO6fH-225">
          <mxGeometry relative="1" as="geometry" />
        </mxCell>
        <mxCell id="Ax4YkN_Q0GDF2FjoO6fH-232" style="edgeStyle=orthogonalEdgeStyle;rounded=0;orthogonalLoop=1;jettySize=auto;html=1;exitX=0.5;exitY=1;exitDx=0;exitDy=0;entryX=0.5;entryY=0;entryDx=0;entryDy=0;strokeWidth=2;spacing=2;fontSize=13;fontStyle=1" edge="1" parent="1" source="Ax4YkN_Q0GDF2FjoO6fH-197" target="Ax4YkN_Q0GDF2FjoO6fH-226">
          <mxGeometry relative="1" as="geometry" />
        </mxCell>
        <mxCell id="Ax4YkN_Q0GDF2FjoO6fH-233" style="edgeStyle=orthogonalEdgeStyle;rounded=0;orthogonalLoop=1;jettySize=auto;html=1;exitX=0.5;exitY=1;exitDx=0;exitDy=0;entryX=0.5;entryY=0;entryDx=0;entryDy=0;strokeWidth=2;spacing=2;fontSize=13;fontStyle=1" edge="1" parent="1" source="Ax4YkN_Q0GDF2FjoO6fH-197" target="Ax4YkN_Q0GDF2FjoO6fH-227">
          <mxGeometry relative="1" as="geometry" />
        </mxCell>
        <mxCell id="Ax4YkN_Q0GDF2FjoO6fH-234" style="edgeStyle=orthogonalEdgeStyle;rounded=0;orthogonalLoop=1;jettySize=auto;html=1;exitX=0.5;exitY=1;exitDx=0;exitDy=0;entryX=0.5;entryY=0;entryDx=0;entryDy=0;strokeWidth=2;spacing=2;fontSize=13;fontStyle=1" edge="1" parent="1" source="Ax4YkN_Q0GDF2FjoO6fH-197" target="Ax4YkN_Q0GDF2FjoO6fH-228">
          <mxGeometry relative="1" as="geometry" />
        </mxCell>
        <mxCell id="Ax4YkN_Q0GDF2FjoO6fH-235" style="edgeStyle=orthogonalEdgeStyle;rounded=0;orthogonalLoop=1;jettySize=auto;html=1;exitX=0.5;exitY=1;exitDx=0;exitDy=0;entryX=0.5;entryY=0;entryDx=0;entryDy=0;strokeWidth=2;spacing=2;fontSize=13;fontStyle=1" edge="1" parent="1" source="Ax4YkN_Q0GDF2FjoO6fH-197" target="Ax4YkN_Q0GDF2FjoO6fH-229">
          <mxGeometry relative="1" as="geometry" />
        </mxCell>
        <mxCell id="Ax4YkN_Q0GDF2FjoO6fH-236" style="edgeStyle=orthogonalEdgeStyle;rounded=0;orthogonalLoop=1;jettySize=auto;html=1;exitX=0.5;exitY=1;exitDx=0;exitDy=0;strokeWidth=2;spacing=2;fontSize=13;fontStyle=1" edge="1" parent="1" source="Ax4YkN_Q0GDF2FjoO6fH-197" target="Ax4YkN_Q0GDF2FjoO6fH-230">
          <mxGeometry relative="1" as="geometry" />
        </mxCell>
        <mxCell id="Ax4YkN_Q0GDF2FjoO6fH-197" value="API" style="rounded=0;whiteSpace=wrap;html=1;strokeWidth=2;spacing=2;fontSize=13;fontStyle=1" vertex="1" parent="1">
          <mxGeometry x="395" y="2490" width="120" height="60" as="geometry" />
        </mxCell>
        <mxCell id="Ax4YkN_Q0GDF2FjoO6fH-237" style="edgeStyle=orthogonalEdgeStyle;rounded=0;orthogonalLoop=1;jettySize=auto;html=1;exitX=0.5;exitY=1;exitDx=0;exitDy=0;entryX=0.5;entryY=0;entryDx=0;entryDy=0;strokeWidth=2;spacing=2;fontSize=13;fontStyle=1" edge="1" parent="1" source="Ax4YkN_Q0GDF2FjoO6fH-225" target="Ax4YkN_Q0GDF2FjoO6fH-187">
          <mxGeometry relative="1" as="geometry" />
        </mxCell>
        <mxCell id="Ax4YkN_Q0GDF2FjoO6fH-225" value="UserController" style="rounded=0;whiteSpace=wrap;html=1;strokeWidth=2;spacing=2;fontSize=13;fontStyle=1" vertex="1" parent="1">
          <mxGeometry x="64" y="2640" width="120" height="60" as="geometry" />
        </mxCell>
        <mxCell id="Ax4YkN_Q0GDF2FjoO6fH-238" style="edgeStyle=orthogonalEdgeStyle;rounded=0;orthogonalLoop=1;jettySize=auto;html=1;exitX=0.5;exitY=1;exitDx=0;exitDy=0;strokeWidth=2;spacing=2;fontSize=13;fontStyle=1" edge="1" parent="1" source="Ax4YkN_Q0GDF2FjoO6fH-226" target="Ax4YkN_Q0GDF2FjoO6fH-188">
          <mxGeometry relative="1" as="geometry" />
        </mxCell>
        <mxCell id="Ax4YkN_Q0GDF2FjoO6fH-226" value="AuthController" style="rounded=0;whiteSpace=wrap;html=1;strokeWidth=2;spacing=2;fontSize=13;fontStyle=1" vertex="1" parent="1">
          <mxGeometry x="199" y="2640" width="120" height="60" as="geometry" />
        </mxCell>
        <mxCell id="Ax4YkN_Q0GDF2FjoO6fH-239" style="edgeStyle=orthogonalEdgeStyle;rounded=0;orthogonalLoop=1;jettySize=auto;html=1;exitX=0.5;exitY=1;exitDx=0;exitDy=0;entryX=0.5;entryY=0;entryDx=0;entryDy=0;strokeWidth=2;spacing=2;fontSize=13;fontStyle=1" edge="1" parent="1" source="Ax4YkN_Q0GDF2FjoO6fH-227" target="Ax4YkN_Q0GDF2FjoO6fH-189">
          <mxGeometry relative="1" as="geometry" />
        </mxCell>
        <mxCell id="Ax4YkN_Q0GDF2FjoO6fH-227" value="LearningController" style="rounded=0;whiteSpace=wrap;html=1;strokeWidth=2;spacing=2;fontSize=13;fontStyle=1" vertex="1" parent="1">
          <mxGeometry x="334" y="2640" width="120" height="60" as="geometry" />
        </mxCell>
        <mxCell id="Ax4YkN_Q0GDF2FjoO6fH-240" style="edgeStyle=orthogonalEdgeStyle;rounded=0;orthogonalLoop=1;jettySize=auto;html=1;exitX=0.5;exitY=1;exitDx=0;exitDy=0;strokeWidth=2;spacing=2;fontSize=13;fontStyle=1" edge="1" parent="1" source="Ax4YkN_Q0GDF2FjoO6fH-228" target="Ax4YkN_Q0GDF2FjoO6fH-190">
          <mxGeometry relative="1" as="geometry" />
        </mxCell>
        <mxCell id="Ax4YkN_Q0GDF2FjoO6fH-228" value="WastonController" style="rounded=0;whiteSpace=wrap;html=1;strokeWidth=2;spacing=2;fontSize=13;fontStyle=1" vertex="1" parent="1">
          <mxGeometry x="474" y="2640" width="120" height="60" as="geometry" />
        </mxCell>
        <mxCell id="Ax4YkN_Q0GDF2FjoO6fH-241" style="edgeStyle=orthogonalEdgeStyle;rounded=0;orthogonalLoop=1;jettySize=auto;html=1;exitX=0.5;exitY=1;exitDx=0;exitDy=0;entryX=0.5;entryY=0;entryDx=0;entryDy=0;strokeWidth=2;spacing=2;fontSize=13;fontStyle=1" edge="1" parent="1" source="Ax4YkN_Q0GDF2FjoO6fH-229" target="Ax4YkN_Q0GDF2FjoO6fH-191">
          <mxGeometry relative="1" as="geometry" />
        </mxCell>
        <mxCell id="Ax4YkN_Q0GDF2FjoO6fH-229" value="SettingController" style="rounded=0;whiteSpace=wrap;html=1;strokeWidth=2;spacing=2;fontSize=13;fontStyle=1" vertex="1" parent="1">
          <mxGeometry x="614" y="2640" width="120" height="60" as="geometry" />
        </mxCell>
        <mxCell id="Ax4YkN_Q0GDF2FjoO6fH-242" style="edgeStyle=orthogonalEdgeStyle;rounded=0;orthogonalLoop=1;jettySize=auto;html=1;exitX=0.5;exitY=1;exitDx=0;exitDy=0;entryX=0.5;entryY=0;entryDx=0;entryDy=0;strokeWidth=2;spacing=2;fontSize=13;fontStyle=1" edge="1" parent="1" source="Ax4YkN_Q0GDF2FjoO6fH-230" target="Ax4YkN_Q0GDF2FjoO6fH-192">
          <mxGeometry relative="1" as="geometry" />
        </mxCell>
        <mxCell id="Ax4YkN_Q0GDF2FjoO6fH-230" value="SaveController" style="rounded=0;whiteSpace=wrap;html=1;strokeWidth=2;spacing=2;fontSize=13;fontStyle=1" vertex="1" parent="1">
          <mxGeometry x="748" y="2640" width="120" height="60" as="geometry" />
        </mxCell>
      </root>
    </mxGraphModel>
  </diagram>
</mxfile>
